<?xml version="1.0" encoding="UTF-8"?>
<svg version="1.1" xmlns="http://www.w3.org/2000/svg" width="120" height="120">
<path d="M0 0 C39.6 0 79.2 0 120 0 C120 39.6 120 79.2 120 120 C80.4 120 40.8 120 0 120 C0 80.4 0 40.8 0 0 Z " fill="#025BA0" transform="translate(0,0)"/>
<path d="M0 0 C3.44236984 2.10129772 4.61641679 4.56452353 5.82421875 8.2734375 C6.97076857 17.69914354 5.20248369 26.04159534 -0.48828125 33.7109375 C-5.26088344 38.2615582 -9.30837263 39.44190897 -15.73828125 39.7734375 C-19.44493355 39.67160639 -21.80897758 39.34964924 -24.73828125 37.0234375 C-29.64005747 31.49322843 -29.60186627 27.09620793 -29.49609375 19.828125 C-28.87485263 12.93386375 -25.99911339 7.24293122 -21.17578125 2.2734375 C-15.22892483 -2.07559807 -6.93673178 -2.31639517 0 0 Z " fill="#F5F8FB" transform="translate(53.17578125,39.7265625)"/>
<path d="M0 0 C2.97 0 5.94 0 9 0 C8.01 4.95 7.02 9.9 6 15 C10.29 15 14.58 15 19 15 C19.144375 13.2675 19.28875 11.535 19.4375 9.75 C19.71720745 6.39351063 20.080898 3.24388943 21 0 C23.64 0 26.28 0 29 0 C29.25022951 7.25665574 29.25022951 7.25665574 28.06835938 10.76757812 C27.0457718 13.8615131 26.33678661 16.85956311 25.7109375 20.0546875 C25.38222656 21.71757813 25.38222656 21.71757813 25.046875 23.4140625 C24.71429688 25.12722656 24.71429688 25.12722656 24.375 26.875 C24.14554688 28.0403125 23.91609375 29.205625 23.6796875 30.40625 C23.11629407 33.27016658 22.55651547 36.13474037 22 39 C19.36 39 16.72 39 14 39 C14.49869404 33.63108121 15.02227532 28.30764827 16 23 C12.04 23.33 8.08 23.66 4 24 C3.79503906 24.99902344 3.59007813 25.99804688 3.37890625 27.02734375 C3.10949219 28.31769531 2.84007813 29.60804687 2.5625 30.9375 C2.29566406 32.22527344 2.02882813 33.51304688 1.75390625 34.83984375 C1 38 1 38 0 39 C-2.33297433 39.04092937 -4.66705225 39.04241723 -7 39 C-7.28045905 34.7931143 -6.94402837 31.42178805 -5.75 27.375 C-3.11815813 18.42170064 -1.67718398 9.16917335 0 0 Z " fill="#F2F7FA" transform="translate(70,39)"/>
<path d="M0 0 C3.125 0.25 3.125 0.25 4.78515625 1.31640625 C7.96700334 5.9082847 6.8274172 12.92379715 6.125 18.25 C4.29379845 22.16440332 2.03814964 25.29342518 -1.875 27.25 C-7.24399365 27.70693563 -7.24399365 27.70693563 -9.6875 25.9375 C-12.30990326 22.21092694 -12.16377467 18.65381369 -11.875 14.25 C-10.51572662 8.60955061 -8.31401233 5.10493176 -3.875 1.25 C-2.875 0.25 -2.875 0.25 0 0 Z " fill="#09599D" transform="translate(43.875,44.75)"/>
</svg>
